<?xml version="1.0" encoding="utf-8"?>
<!-- Generator: Adobe Illustrator 27.5.0, SVG Export Plug-In . SVG Version: 6.00 Build 0)  -->
<svg version="1.1" xmlns="http://www.w3.org/2000/svg" xmlns:xlink="http://www.w3.org/1999/xlink" x="0px" y="0px"
	 viewBox="0 0 1100 800" style="enable-background:new 0 0 1100 800;" xml:space="preserve">
<g id="Shadow">
	<g style="opacity:0.2;">
		<path style="fill:#D67086;" d="M521.964,614.118c-28.193,0.084-56.385,0.762-84.528,3.892c-10.611,1.18-21,3.776-31.635,4.823
			c-21.244,2.092-42.107,5.993-63.426,7.793c-17.168,1.449-34.408,2.305-51.526,4.143c-16.049,1.724-33.816,1.326-49.742-1.522
			c-11.79-2.109-23.633-3.296-35.225-6.682c-12.967-3.789-27.055-6.498-40.565-6.4c-19.266,0.139-38.028,0.155-56.466,6.845
			c-6.472,2.348-14.395,6.209-19.31,11.137c-11.251,11.282-12.774,39.432-1.54,51.133c18.921,19.693,59.305,27.42,85.827,27.785
			c29.063,0.4,57.296-1.758,86.401-3.026c27.045-1.179,54.023-2.856,81.113-2.797c55.328,0.121,110.664,0,165.892-3.696
			c51.888-3.472,103.907-2.28,155.909-2.28c53.326,0,106.291,0.419,159.232,7.506c23.067,3.088,46.568,4.169,69.75,6.332
			c20.762,1.938,40.714-0.038,61.394-1.829c17.365-1.504,34.616-5.964,50.391-13.503c12.487-5.968,34.749-24.507,38.579-38.752
			c10.736-39.935-151.3-38.975-176.179-38.885c-27.831,0.101-55.884,1.016-83.693-0.045c-11.698-0.446-23.224-2.733-34.641-5.238
			c-11.372-2.495-22.83-1.861-34.362-2.91c-48.092-4.374-96.291-3.734-144.536-3.734
			C553.379,614.209,537.671,614.071,521.964,614.118z"/>
	</g>
</g>
<g id="object">
	<g>
		<path style="fill:#EFBFA5;" d="M111.902,324.908c2.351-1.401,5.983-1.797,8.864-3.352c1.453-0.784,1.397-4.117,4.465-2.584
			c1.132,0.566,3.054,2.218,5.22,3.271c3.16,1.535,7.829,1.838,11.844,1.319c15.776-2.039,31.606-3.784,47.592-3.984
			c0.912-0.011,1.814,0.005,2.621-0.463c1.444-0.839,1.762-2.384,2.245-3.885c2.234-6.961,4.662-13.761,8.192-20.206
			c3.151-5.751,6.754-11.175,12.176-14.962c5.422-3.786,12.275-5.32,18.308-2.79c4.519,1.894,8.091,5.475,8.631,10.406
			c1.338,12.23-10.494,20.25-17.854,28.093c-6.963,7.42-12.913,13.71-20.112,20.442c-0.889,0.832-1.734,1.606-2.914,2.021
			c-1.18,0.414-2.495,0.327-3.727,0.203c-15.855-1.606-31.269-3.578-47.093-1.722c-4.349,0.51-8.167-0.736-12.308,0.275
			c-2.642,0.645-4.205,3.071-6.671,4.081c-2.466,1.011-5.362,2.002-8.019,1.947c-5.856-0.12-12.05-5.585-13.516-11.348
			C108.889,327.912,109.958,326.066,111.902,324.908"/>
		<path style="fill:#353A85;" d="M224.409,311.375c-8.643-4.17-17.834-7.062-26.188-11.925c3.829-7.31,15.685-37.375,17.583-40.933
			c7.246-13.578,8.943-19.553,17.875-26.274c19.072-14.352,39.131-1.957,36.283,20.543c-3.091,24.426-18.074,44.307-33.966,62.011
			c-0.345,0.385-0.794,0.67-1.351,0.824c-0.557,0.155-1.364-0.122-1.991-0.436C229.969,313.845,227.138,312.691,224.409,311.375"/>
		<path style="fill:#EFBFA5;" d="M218.796,650.924c-3.14,0.106-6.158-0.599-9.241-0.883c-1.592-30.573,1.297-62.616,2.55-93.335
			c7.855,0.419,15.708,0.838,23.562,1.257c-5.469,16.418-9.373,33.355-11.657,50.508
			C223.649,611.19,219.244,650.909,218.796,650.924"/>
		<path style="fill:#292949;" d="M208.604,644.11c-1.939-0.345-3.083,0.517-4.375,1.699c-0.75,0.685-1.26,1.656-2.166,2.147
			c-0.905,0.491-1.794,0.587-2.869,0.695c-5.666,0.57-18.72,0.333-11.765,9.81c6.315,8.605,23.087,5.18,32.776,2.842
			c0.637-0.154,1.31-0.25,1.777-0.743c0.466-0.493,0.782-1.195,0.98-1.923c1.106-4.05,2.617-9.106-2.361-10.803
			c-2.124-0.723-4.08,0.683-6.329-0.096C212.43,647.099,210.542,644.456,208.604,644.11"/>
		<path style="fill:#292949;" d="M194.495,575.146c16.017-0.31,32.034-0.621,48.051-0.932
			c12.956-61.681,24.367-123.687,34.217-185.939c0.763-4.827,1.507-9.846,0.116-14.53c-2.63-8.86-12.119-13.916-21.204-15.613
			c-14.118-2.638-40.058,1.035-47.298,15.714c-7.652,15.513-6.367,43.22-8.223,60.362
			C195.089,480.989,193.192,528.11,194.495,575.146"/>
		<path style="fill:#EFBFA5;" d="M310.394,650.924c3.14,0.106,6.158-0.599,9.241-0.883c1.592-30.573-1.297-62.616-2.55-93.335
			c-7.854,0.419-15.708,0.838-23.563,1.257c5.47,16.418,9.374,33.355,11.657,50.508C305.541,611.19,309.946,650.909,310.394,650.924
			"/>
		<path style="fill:#292949;" d="M320.586,644.11c1.939-0.345,3.082,0.517,4.375,1.699c0.75,0.685,1.26,1.656,2.166,2.147
			c0.905,0.491,1.794,0.587,2.869,0.695c5.666,0.57,18.72,0.333,11.765,9.81c-6.315,8.605-23.087,5.18-32.776,2.842
			c-0.637-0.154-1.31-0.25-1.777-0.743c-0.467-0.493-0.783-1.195-0.981-1.923c-1.106-4.05-2.617-9.106,2.361-10.803
			c2.125-0.723,4.081,0.683,6.329-0.096C316.759,647.099,318.647,644.456,320.586,644.11"/>
		<path style="fill:#292949;" d="M334.695,575.146c-16.017-0.31-32.034-0.621-48.051-0.932
			c-12.957-61.681-24.367-123.687-34.217-185.939c-0.763-4.827-1.507-9.846-0.117-14.53c2.631-8.86,12.12-13.916,21.205-15.613
			c14.118-2.638,40.058,1.035,47.298,15.714c7.652,15.513,6.367,43.22,8.223,60.362C334.1,480.989,335.997,528.11,334.695,575.146"
			/>
		<path style="fill:#353A85;" d="M293.624,236.922c12.841,12.221,22.46,27.921,28.254,44.183
			c10.259,28.798,10.457,59.546,10.551,89.676c0.032,10.028,0.062,20.056,0.094,30.084c0.031,9.866-0.841,11.99-11.564,10.689
			c-19.87-2.41-40.526-6.507-58.53-15.337c-8.567-4.202-16.573-9.508-25.557-12.817c-13.065-4.813-26.461-2.634-39.389-5.765
			c5.613-16.963,9.628-31.413,12.508-48.891c2.966-17.997,5.662-37.628,10.008-55.383c2.608-10.655,7.458-20.608,12.391-30.405
			c3.316-6.585,6.827-13.324,12.458-18.084C261.813,210.535,280.831,224.747,293.624,236.922"/>
		<path style="fill:#EFBFA5;" d="M247.29,194.676c2.425,5.301,6.388,9.719,9.624,14.567c3.148,4.718,4.28,8.986,5.115,14.456
			c0.603,3.95,2.015,7.038,6.774,7.714c8.975,1.275,6.408-6.14,8.447-11.535c2.33-6.167,7.299-11.039,10.772-16.543
			c10.034-15.903,7.17-47.337-13.686-54.045C251.531,141.956,239.931,178.589,247.29,194.676"/>
		<path style="fill:#292949;" d="M283.643,179.286c2.589,0.104,5.437,0.309,7.357,2.048c1.92,1.739,1.712,5.531-0.823,5.941
			c-2.298,0.372-5.273-2.026-6.677-0.276c-0.82,1.023-0.1,2.52,0.522,3.716c2.388,4.591,3.103,9.913,1.989,14.803
			c0.946,0.876,2.42-0.033,3.251-0.945c4.124-4.529,7.345-9.82,9.454-15.526c0.828,1.381,2.043,2.557,3.475,3.364
			c-0.859-2.146-0.315-4.493,0.215-6.683c1.949-8.045,3.275-17.47-2.343-24.044c-3.006-3.517-7.577-5.541-12.174-6.391
			c-4.597-0.851-9.282-0.644-13.915-0.435c-1.982,0.089-4.424,0.517-4.9,2.351c4.347,1.743,8.845,5.139,11.021,9.255
			C280.763,167.728,283.379,179.275,283.643,179.286"/>
		<path style="fill:#292949;" d="M274.456,159.956c0.159,0.115,0.315,0.23,0.467,0.347c1.97,1.5,3.818,3.324,6.202,3.989
			c3.437,0.959,7.13-0.698,10.514,0.472c3.783,1.309,6.268,5.832,9.03,8.509c4.528,4.389,10.142,7.617,16.168,9.452
			c3.078,0.937,6.267,1.512,9.479,1.693c1.457,0.082,3.405,0.359,4.825-0.024c1.905-0.514,1.841-1.379-0.19-2.03
			c-6.366-2.04-8.363-10.982-7.882-16.911c0.38-4.679,1.994-9.57,0.21-13.912c-1.364-3.317-4.291-5.03-7.121-6.927
			c-3.121-2.093-6.504-1.528-10.048-2.536c-3.697-1.05-6.708-3.961-10.479-4.704c-3.983-0.783-7.963,0.982-11.948,1.755
			c-3.292,0.64-6.715,0.598-9.991-0.123c-2.935-0.646-5.799-1.833-8.804-1.806c-4.432,0.041-8.508,2.807-11.093,6.406
			c-3.658,5.091-6.023,13.802-4.734,20.505c-0.2-1.04,3.301-4.808,4.021-5.62c1.52-1.71,3.354-3.314,5.674-3.591
			C264.008,154.278,270.233,156.891,274.456,159.956"/>
		<path style="fill:#BABCBE;" d="M99.876,366.101c0,0,4.903,23.293,1.628,33.834l8.913,0.068l-2.876-37.446L99.876,366.101z"/>
		<path style="fill:#BABCBE;" d="M109.993,395.93c-2.496,0.395-5.003,0.68-7.524,0.854c-0.405,0.028-0.329,0.691,0.075,0.663
			c2.521-0.175,5.027-0.46,7.524-0.854C110.467,396.53,110.394,395.866,109.993,395.93"/>
		<path style="fill:#BABCBE;" d="M109.592,392.408c-2.144,0.292-4.272,0.583-6.715,0.916c-0.401,0.055-0.328,0.719,0.076,0.664
			c2.238-0.306,4.476-0.611,6.715-0.916C110.068,393.017,109.995,392.353,109.592,392.408"/>
		<path style="fill:#BABCBE;" d="M109.249,389.374c-1.654,0.494-2.671,0.787-6.422,0.748c-0.406-0.004-0.328,0.668,0.075,0.663
			c2.17-0.024,4.303-0.272,6.421-0.748C109.716,389.949,109.645,389.285,109.249,389.374"/>
		<path style="fill:#BABCBE;" d="M109.411,385.094c-2.16,0.521-4.338,0.895-6.546,1.125c-0.404,0.042-0.329,0.705,0.075,0.663
			c2.208-0.23,4.386-0.604,6.546-1.124C109.876,385.662,109.805,384.999,109.411,385.094"/>
		<path style="fill:#BABCBE;" d="M108.814,381.299c-2.132,0.321-4.271,0.577-6.418,0.769c-0.404,0.036-0.33,0.699,0.074,0.663
			c2.148-0.192,4.287-0.448,6.419-0.768C109.289,381.902,109.216,381.239,108.814,381.299"/>
		<path style="fill:#BABCBE;" d="M108.221,377.518c-2.067,0.388-4.145,0.697-6.235,0.926c-0.403,0.045-0.33,0.707,0.075,0.663
			c2.09-0.229,4.168-0.537,6.236-0.926C108.693,378.106,108.621,377.442,108.221,377.518"/>
		<path style="fill:#BABCBE;" d="M107.892,373.202c-2.214,0.474-4.442,0.854-6.686,1.144c-0.068,0.008-0.117,0.038-0.158,0.074
			c0.004,0.026,0.006,0.053,0.011,0.079c0.045,0.162,0.081,0.327,0.116,0.492c0.033,0.01,0.065,0.023,0.106,0.018
			c2.244-0.288,4.472-0.67,6.686-1.143C108.36,373.781,108.289,373.117,107.892,373.202"/>
		<path style="fill:#BABCBE;" d="M107.726,368.899c-2.184,0.317-4.367,0.635-6.551,0.952c-0.4,0.058-0.328,0.721,0.075,0.663
			c2.183-0.317,4.367-0.635,6.551-0.951C108.202,369.504,108.128,368.841,107.726,368.899"/>
		<path style="fill:#D67086;" d="M257.017,435.676L97.751,449.025c-0.203,0.017-0.383-0.138-0.4-0.346l-2.257-26.598
			c-0.018-0.208,0.134-0.391,0.337-0.407l159.266-13.349c0.203-0.017,0.383,0.138,0.401,0.346l2.256,26.598
			C257.372,435.477,257.22,435.659,257.017,435.676"/>
		<polygon style="fill:#292949;" points="125.805,446.676 109.065,448.08 106.744,420.723 123.485,419.319 		"/>
		<polygon style="fill:#292949;" points="133.39,446.041 129.668,446.353 127.347,418.996 131.069,418.684 		"/>
		<path style="fill:#292949;" d="M146.374,431.177c0.227,2.677-1.715,5.024-4.337,5.244s-4.932-1.771-5.16-4.448
			c-0.227-2.676,1.715-5.024,4.337-5.244S146.147,428.5,146.374,431.177"/>
		<path style="fill:#5D66D3;" d="M256.033,408.514L96.767,421.863c-0.203,0.017-0.383-0.138-0.4-0.346l-1.808-21.309
			c-0.017-0.208,0.133-0.391,0.337-0.408l159.266-13.349c0.203-0.017,0.383,0.138,0.4,0.346l1.807,21.309
			C256.388,408.315,256.236,408.497,256.033,408.514"/>
		<polygon style="fill:#EED5D5;" points="115.404,404.376 116.215,413.939 120.888,409.257 		"/>
		<polygon style="fill:#EED5D5;" points="121.885,404.761 122.54,412.481 126.313,408.701 		"/>
		<polygon style="fill:#EED5D5;" points="105.764,421.109 105.04,421.17 103.168,399.107 103.892,399.047 		"/>
		<polygon style="fill:#EED5D5;" points="109.165,420.824 108.44,420.884 106.569,398.822 107.294,398.762 		"/>
		<path style="fill:#EED5D5;" d="M136.639,153.536l-11.341,4.199l0.153-2.726c0.46-8.206-0.965-18.094-3.347-25.984l0.468-0.494
			l10.401-8.978L136.639,153.536z"/>
		<polygon style="fill:#9EB79C;" points="201.456,149.144 135.664,152.048 125.02,157.617 196.273,154.631 		"/>
		<path style="fill:#B0C0BA;" d="M124.832,156.886c1.913-0.514,3.721-1.781,5.534-2.784c1.699-0.942,3.395-1.882,5.089-2.82
			c0.268-0.149,0.478,0.737,0.209,0.886c-1.828,1.014-3.66,2.03-5.495,3.048c-1.72,0.954-3.426,2.111-5.241,2.601
			C124.642,157.895,124.549,156.962,124.832,156.886"/>
		<path style="fill:#B0C0BA;" d="M132.985,120.795c-3.809,2.485-7.493,5.533-11.026,9.154c-0.366,0.375-0.841-0.827-0.472-1.206
			c3.587-3.672,7.317-6.781,11.183-9.3C133.067,119.184,133.382,120.535,132.985,120.795"/>
		<path style="fill:#8CABEF;" d="M198.721,116.997l-66.289,2.578l1.029,7.297c0.832,5.903,1.43,11.831,1.791,17.729l0.412,7.448
			l65.792-2.904l0.024-0.441C202.034,138.326,201.078,127.299,198.721,116.997"/>
		<path style="fill:#5D66D3;" d="M142.45,119.927c-0.194-0.927-1.638-0.761-1.444,0.174c2.04,9.773,2.766,19.717,2.136,29.679
			c-0.06,0.947,1.379,1.175,1.439,0.223C145.22,139.914,144.516,129.828,142.45,119.927"/>
		<path style="fill:#5D66D3;" d="M190.823,118.405c-0.202-0.925-1.645-0.747-1.442,0.188c2.123,9.755,2.935,19.693,2.392,29.659
			c-0.052,0.947,1.388,1.163,1.441,0.21C193.764,138.368,192.973,128.288,190.823,118.405"/>
		<path style="fill:#EFBFA5;" d="M105.024,197.274l-25.442,6.487l0.542-3.683c1.628-11.087-0.798-24.303-5.489-34.756l1.073-0.7
			l23.715-12.857L105.024,197.274z"/>
		<polygon style="fill:#292949;" points="248.975,186.604 102.972,195.34 78.973,203.624 237.083,194.376 		"/>
		<path style="fill:#353A85;" d="M78.612,202.652c4.277-0.833,8.379-2.672,12.468-4.157c3.836-1.394,7.664-2.784,11.486-4.172
			c0.606-0.219,1.003,0.959,0.396,1.18c-4.125,1.5-8.26,3.003-12.403,4.508c-3.88,1.41-7.748,3.096-11.805,3.889
			C78.115,204.025,77.978,202.776,78.612,202.652"/>
		<path style="fill:#353A85;" d="M99.356,153.437c-8.624,3.627-17.012,8.004-25.113,13.14c-0.839,0.532-1.803-1.053-0.956-1.59
			c8.222-5.21,16.716-9.671,25.47-13.348C99.658,151.261,100.255,153.059,99.356,153.437"/>
		<path style="fill:#3B3387;" d="M245.302,143.499l-147.08,8.333l1.739,9.755c1.405,7.89,2.292,15.832,2.652,23.751l0.36,10.001
			l146.003-8.735l0.085-0.596C251.059,171.989,249.759,157.205,245.302,143.499z"/>
		<path style="fill:#DDDAE8;" d="M242.989,387.151l-134.775,11.296l-2.745-32.365l134.775-11.296l0.167,0.433
			C244.358,365.379,245.255,376.496,242.989,387.151"/>
		
			<rect x="120.591" y="364.08" transform="matrix(0.9965 -0.0835 0.0835 0.9965 -31.3143 12.1916)" style="fill:#353A85;" width="18.897" height="32.481"/>
		<path style="fill:#EFBFA5;" d="M103.031,331.793l-25.317-1.585l1.151,2.78c3.458,8.356,3.456,18.859,0.848,27.479l1.129,0.401
			l24.62,6.91L103.031,331.793z"/>
		<polygon style="fill:#292949;" points="249.071,320.004 101.4,333.579 77.164,330.397 235.403,315.407 		"/>
		<path style="fill:#353A85;" d="M76.991,331.199c4.184,0.067,8.386,0.937,12.523,1.536c3.89,0.563,7.78,1.126,11.67,1.69
			c0.617,0.089,0.795-0.882,0.176-0.972c-4.201-0.608-8.402-1.217-12.603-1.826c-3.926-0.568-7.879-1.351-11.849-1.415
			C76.284,330.203,76.373,331.189,76.991,331.199"/>
		<path style="fill:#353A85;" d="M105.115,366.5c-8.807-1.713-17.482-4.025-25.984-6.945c-0.879-0.302-1.51,1.033-0.623,1.337
			c8.623,2.962,17.409,5.327,26.343,7.065C105.772,368.137,106.035,366.679,105.115,366.5"/>
		<path style="fill:#474EBB;" d="M252.081,355.49l-147.773,12.386l-0.008-7.734c-0.007-6.274-0.518-12.539-1.529-18.733l-1.372-7.83
			l147.672-13.575l0.184,0.474C253.583,331.618,254.566,343.807,252.081,355.49"/>
		<path style="fill:#8CABEF;" d="M234.602,318.944L94.559,330.682c-0.203,0.017-0.383-0.138-0.4-0.345l-2.782-32.786
			c-0.018-0.208,0.134-0.391,0.337-0.408l140.043-11.738c0.203-0.017,0.383,0.138,0.4,0.346l2.781,32.785
			C234.957,318.745,234.806,318.927,234.602,318.944"/>
		<path style="fill:#5D66D3;" d="M249.101,260.024L75.967,274.535c-0.203,0.018-0.383-0.138-0.401-0.346l-2.013-23.731
			c-0.018-0.208,0.133-0.391,0.337-0.408l173.134-14.511c0.204-0.018,0.383,0.138,0.401,0.345l2.012,23.732
			C249.456,259.824,249.304,260.006,249.101,260.024"/>
		<path style="fill:#D67086;" d="M219.276,238.324l-110.359,9.25l-4.103-48.365l110.359-9.249l0.629,2.659
			c3.329,14.067,4.558,28.557,3.646,42.979L219.276,238.324z"/>
		<polygon style="fill:#EED5D5;" points="143.02,244.391 121.121,246.227 117.073,198.505 138.972,196.67 		"/>
		
			<rect x="123.775" y="197.51" transform="matrix(0.9965 -0.0835 0.0835 0.9965 -18.0453 11.6289)" style="fill:#D67086;" width="12.339" height="47.893"/>
		<g style="opacity:0.13;">
			<g>
				<defs>
					<rect id="SVGID_1_" x="104.837" y="190.229" width="112.956" height="12.323"/>
				</defs>
				<clipPath id="SVGID_00000140695289005473248150000001683945457779009923_">
					<use xlink:href="#SVGID_1_"  style="overflow:visible;"/>
				</clipPath>
				<polygon style="clip-path:url(#SVGID_00000140695289005473248150000001683945457779009923_);fill:#000100;" points="
					104.837,199.479 215.196,190.229 217.792,202.553 105.059,202.098 				"/>
			</g>
		</g>
		<g style="opacity:0.64;">
			<g>
				<defs>
					
						<rect id="SVGID_00000049187247105732926700000008205006049254076350_" x="147.125" y="126.321" width="15.001" height="15.302"/>
				</defs>
				<clipPath id="SVGID_00000008118142958288147170000012955773462844245403_">
					<use xlink:href="#SVGID_00000049187247105732926700000008205006049254076350_"  style="overflow:visible;"/>
				</clipPath>
				<path style="clip-path:url(#SVGID_00000008118142958288147170000012955773462844245403_);fill:#5D66D3;" d="M162.098,133.345
					c0.358,4.211-2.699,7.906-6.825,8.252c-4.127,0.346-7.762-2.788-8.119-6.999c-0.358-4.211,2.699-7.905,6.825-8.252
					C158.105,126.001,161.74,129.134,162.098,133.345"/>
			</g>
		</g>
		<path style="fill:#DDDAE8;" d="M91.893,260.611c-1.649-1.756-3.492-3.21-5.552-4.427c-0.813-0.48-1.43,0.862-0.623,1.338
			c1.756,1.037,3.316,2.285,4.749,3.731c-1.265,1.769-2.636,3.433-4.142,4.998c-0.655,0.682,0.462,1.637,1.113,0.96
			c1.664-1.731,3.172-3.574,4.543-5.555C92.226,261.303,92.185,260.923,91.893,260.611"/>
		<path style="fill:#DDDAE8;" d="M100.294,259.596c-1.117-1.445-3.068-2.601-4.474-3.753c-0.731-0.599-1.669,0.531-0.935,1.131
			c1.187,0.972,2.855,1.951,3.925,3.13c-0.493,0.728-1.371,1.44-1.906,2.034c-0.714,0.793-1.429,1.586-2.143,2.378
			c-0.634,0.703,0.481,1.66,1.113,0.96c0.857-0.951,1.714-1.902,2.571-2.853c0.634-0.703,1.521-1.402,1.912-2.281
			C100.46,260.11,100.455,259.805,100.294,259.596"/>
		<path style="fill:#DDDAE8;" d="M104.337,253.517c-0.722-0.612-1.659,0.519-0.936,1.132c0.435,0.368,1.336,1.69,0.372,1.964
			c-0.899,0.256-0.391,1.649,0.507,1.393c0.898-0.256,1.39-1.145,1.349-2.067C105.587,254.985,105.043,254.115,104.337,253.517"/>
		<path style="fill:#DDDAE8;" d="M112.73,256.604c-0.23-0.28-0.547-0.326-0.817-0.237c-1.266-0.525-2.786-0.151-3.585,1.011
			c-0.79,1.149-0.521,2.784,0.471,3.726c1.097,1.043,2.785,0.921,3.841-0.113C113.84,259.815,113.767,257.868,112.73,256.604
			 M111.677,259.881c-0.52,0.561-1.396,0.659-1.94,0.09c-1.122-1.175,0.239-2.855,1.62-2.244c0.146,0.065,0.283,0.076,0.409,0.055
			C112.153,258.441,112.24,259.273,111.677,259.881"/>
		
			<rect x="212.897" y="286.91" transform="matrix(0.9965 -0.0837 0.0837 0.9965 -24.6721 18.9503)" style="fill:#DDDAE8;" width="1.675" height="33.79"/>
		
			<rect x="219.657" y="286.343" transform="matrix(0.9965 -0.0837 0.0837 0.9965 -24.6179 19.5286)" style="fill:#DDDAE8;" width="1.675" height="33.79"/>
		<g style="opacity:0.11;">
			<g>
				<defs>
					
						<rect id="SVGID_00000135663797097962364870000015702472512003939000_" x="105.462" y="356.43" width="137.058" height="12.171"/>
				</defs>
				<clipPath id="SVGID_00000150095538640684836480000010631415510536972177_">
					<use xlink:href="#SVGID_00000135663797097962364870000015702472512003939000_"  style="overflow:visible;"/>
				</clipPath>
				<path style="clip-path:url(#SVGID_00000150095538640684836480000010631415510536972177_);fill:#000100;" d="M105.462,367.779
					l135.403-11.349c0,0,1.152,3.23,1.656,5.413l-136.838,6.758L105.462,367.779z"/>
			</g>
		</g>
		<path style="fill:#292949;" d="M242.174,284.825L69.04,299.336c-0.203,0.018-0.383-0.138-0.401-0.345l-2.013-23.732
			c-0.018-0.208,0.133-0.391,0.337-0.408l173.134-14.511c0.204-0.017,0.383,0.138,0.401,0.345l2.012,23.732
			C242.529,284.625,242.377,284.808,242.174,284.825"/>
		
			<rect x="87.708" y="280.305" transform="matrix(0.9965 -0.0834 0.0834 0.9965 -23.479 8.4155)" style="fill:#DDDAE8;" width="2.628" height="10.053"/>
		
			<rect x="95.934" y="279.616" transform="matrix(0.9965 -0.0834 0.0834 0.9965 -23.3938 9.0993)" style="fill:#DDDAE8;" width="2.628" height="10.053"/>
		<path style="fill:#EED5D5;" d="M249.717,259.52L76.101,274.315c-0.511,0.046-0.932-0.404-0.866-0.922l173.847-16.195
			L249.717,259.52z"/>
		<path style="fill:#DDDAE8;" d="M248.994,258.519L75.378,273.314c-0.511,0.046-0.932-0.404-0.866-0.922l173.847-16.195
			L248.994,258.519z"/>
		<path style="fill:#BABCBE;" d="M97.256,203.778c0,0,7.777,30.232,2.713,43.424l8.947,0.372l-4.08-48.094L97.256,203.778z"/>
		<path style="fill:#EFBFA5;" d="M230.265,360.769c0.106-0.296,0.218-0.601,0.398-0.847c1.678-2.287,3.921-2.476,6.154-4.211
			c0.996-0.774,0.714-4.004,3.201-3.138c0.918,0.319,3.058,1.422,5.008,2.122c2.843,1.022,7.065,0.598,10.355-0.357
			c4.422-1.284,9.071-2.745,13.218-4.659c4.34-2.003,8.573-4.235,12.706-6.635c3.444-2,8.909-4.293,11.513-7.336
			c4.403-5.146-0.696-17.692-1.276-24.119c-0.604-6.698-0.018-26.431,9.024-26.989c14.813-0.914,15.046,13.161,15.707,24.495
			c0.414,7.074,0.384,14.281-0.251,21.342c-0.89,9.889-7.298,15.551-15.767,20.232c-8.976,4.961-18.156,9.826-28.02,12.777
			c-4.794,1.436-9.514,1.864-14.406,2.655c-4.834,0.781-4.216,2.89-8.273,4.659c-2.264,0.987-4.385,2.421-6.802,2.972
			c-4.333,0.989-7.805-2.015-11.098-4.34c-0.819-0.578-1.375-0.968-1.8-1.806c-0.692-1.364-0.422-2.823-0.207-4.281
			C229.776,362.443,229.973,361.587,230.265,360.769"/>
		<path style="fill:#353A85;" d="M315.999,312.926c-8.375,1.623-16.749,3.247-25.125,4.87c0.537-0.104-9.691-37.552-10.224-39.801
			c-2.032-8.587-4.074-17.501-2.334-26.152c3.715-18.473,12.621-23.02,23.84-3.609c10.59,18.321,27.19,40.255,23.902,61.107
			c-0.071,0.453-0.156,0.928-0.443,1.286c-0.394,0.492-1.066,0.643-1.684,0.762L315.999,312.926z"/>
		<path style="fill:#8CABEF;" d="M524.208,249.774c12.165,7.403,25.773,12.426,39.832,14.7c2.512-11.522,5.169-23.012,7.973-34.467
			c1.208-4.937,2.473-9.954,4.891-14.464c1.286-2.398,6.117-6.767,4.615-9.877c-2.632-5.448-14.086,0.581-17.357,2.392
			c-8.532,4.723-16.335,11.293-23.044,18.324C539.498,228.08,522.724,248.871,524.208,249.774"/>
		<path style="fill:#EFBFA5;" d="M641.397,520.875l0.776,47.158c-0.317,13.083,0.862,26.126,1.657,39.168
			c0.74,12.113-1.702,24.598,4.045,35.825c1.803,3.52,5.637,5.972,8.555,1.906c2.249-3.134,1.214-8.557,1.769-12.195
			c4.174-27.338,11.944-53.997,15.82-81.386C678.08,522.661,666.981,523.418,641.397,520.875"/>
		<polygon style="fill:#292949;" points="644.076,634.964 641.045,642.831 655.963,655.963 669.631,656.526 674.051,649.315 
			655.67,633.331 		"/>
		<path style="fill:#EFBFA5;" d="M607.99,521.334l-8.601,46.375c-2.982,20.745-9.759,40.948-12.741,61.694
			c-0.685,4.77-0.34,9.988-2.333,14.488c-1.95,4.401-5.768,4.576-9.138,1.589c-4.513-4.001-2.43-11.15-2.348-16.615
			c0.552-36.406-2.311-72.298-3-108.763c-0.01-0.479,0.012-1.026,0.381-1.33c0.301-0.247,0.729-0.242,1.117-0.216
			C574.868,518.791,607.804,522.336,607.99,521.334"/>
		<polygon style="fill:#292949;" points="572.724,636.9 567.994,643.88 579.565,660.04 592.753,663.674 598.685,657.646 
			584.386,637.927 		"/>
		<polygon style="fill:#292949;" points="690,550.88 683.567,483.459 680.464,439.654 670.032,403.876 613.704,395.133 
			544.061,407.07 540.714,420.602 554.117,545.846 621.288,550.88 620.378,472.929 630.739,521.245 630.3,550.88 		"/>
		<path style="fill:#FFFFFF;" d="M558.845,272.15c-0.095,2.276-0.158,4.552-0.197,6.822c-0.815,46.246,1.734,93.081,2.026,139.709
			c23.882-3.738,48.025-5.797,72.194-6.163c5.594-0.084,31.028,3.843,34.57,0.503c4.806-4.533-0.479-3.679-0.128-9.585
			c0.456-7.641-3.216-13.897-1.829-22.952c1.63-10.642,4.872-21.167,6.74-31.806c3.744-21.334,5.999-42.928,6.73-64.576
			c0.65-19.2-0.047-39.113-8.304-56.46c-20.361-42.777-86.007-42.007-104.02,2.658C561.292,243.529,559.44,257.852,558.845,272.15"
			/>
		<path style="fill:#8CABEF;" d="M632.92,212.144l-17.829,32.492c0.932,32.823,1.863,65.647,2.795,98.471
			c0.43,15.126,0.859,30.254,1.288,45.38c0.149,5.252,0.28,10.506,0.447,15.758c0.075,2.358-0.575,6.326,0.769,8.25
			c2.919,4.176,13.589,2.874,18.244,3.24c7.259,0.572,14.623,1.165,21.459,3.671c4.552,1.669,8.866,4.181,13.667,4.855
			c1.079,0.151,2.285,0.173,3.132-0.512c0.947-0.766,1.109-2.124,1.198-3.338c1.669-22.533,1.704-45.765,2.954-68.54
			c0.982-17.912,3.409-35.967,2.554-53.905c-0.88-18.452-3.768-36.806-7.295-54.916c-2.088-10.722-4.542-21.653-10.445-30.844
			c-6.691-10.42-16.162-14.594-27.828-16.942c-4.121-0.83-19.456-6.628-16.897,2.739
			C622.401,202.634,629.793,208.423,632.92,212.144"/>
		<path style="fill:#8CABEF;" d="M594.131,215.199l17.829,32.492c-0.373,0-2.261,79.648-2.414,85.025
			c-0.58,20.444-1.161,40.89-1.741,61.334c-0.161,5.683,0.602,12.339-0.509,17.926c-1.552,7.798-9.762,6.263-16.757,6.894
			c-15.303,1.38-31.414,3.992-46.759,3.217c-4.427-0.224,1.399-92.595,1.391-101.215c-0.03-31.003-6.426-65.399,9.323-93.514
			c4.582-8.18,12.66-21.294,21.577-25.333c8.309-3.763,20.204-4.404,29.224-6.513l0.47,5.845L594.131,215.199z"/>
		<path style="fill:#292949;" d="M632.829,136.496c2.807,4.919,4.159,10.586,4.409,16.244c0.066,1.504,0.169,3.242,1.385,4.13
			c1.302,0.951,0.158,3.037,1.148,1.765c0.99-1.273,4.354-5.691,4.505-7.295c0.355-3.761,0.35-7.555-0.016-11.314
			c-0.317-3.269-0.985-6.686-3.125-9.178c-1.268-1.479-2.961-2.517-4.628-3.524c-2.417-1.461-4.909-2.934-7.685-3.451
			c-4.786-0.892-7.722,0.825-3.499,4.163C628.347,130.426,630.906,133.126,632.829,136.496"/>
		<path style="fill:#EFBFA5;" d="M602.925,200.679c0.032,2.316-0.443,4.718,1.6,6.514c0.982,0.863,2.309,1.21,3.601,1.414
			c3.338,0.529,6.797,0.284,10.027-0.712c1.329-0.409,2.653-0.965,3.656-1.927c1.185-1.138,1.245-2.217,1.302-3.706
			c0.067-1.746,0.419-3.52,0.648-5.29c0.5-3.872,0.724-7.775,0.836-11.675c5.734-0.983,12.479-2.838,14.44-8.845
			c0.617-1.892,0.639-3.95,0.654-5.963c0.06-8.322,0.122-16.645,0.182-24.967c0.021-2.879,0.028-5.845-0.958-8.516
			c-1.729-4.687-6.125-7.48-10.434-9.238c-10.998-4.485-23.817-4.307-33.968,2.074c-2.701,1.699-5.252,3.883-6.807,6.848
			c-2.399,4.571-2.097,10.216-1.725,15.491c0.344,4.87,0.688,9.739,1.031,14.608c0.396,5.6,1.237,12.047,5.586,15.005
			c2.309,1.571,5.293,1.859,7.283,3.891c3.473,3.547,1.818,8.847,2.845,13.145C602.871,199.429,602.916,200.051,602.925,200.679"/>
		<path style="fill:#292949;" d="M641.708,167.169c-0.093-1.543-0.767-6.065-3.089-3.223c-0.607,0.743-0.756,1.793-0.793,2.784
			c-0.038,0.99,0.007,2.008-0.304,2.94c-0.716,2.139-3.082,3.111-5.191,3.074c-0.839-0.015-1.693-0.152-2.435-0.574
			c-0.72-0.41-1.291-1.061-1.848-1.701c-1.353-1.552-2.706-3.105-4.06-4.658c-2.325-2.669-6.939-1.515-10.073-1.105
			c-3.613,0.471-7.226,1.561-10.177,3.938c-0.298,0.239-0.589,0.492-0.88,0.743c-0.712,0.614-1.427,1.222-2.254,1.624
			c-2.79,1.358-6.244-0.06-8.199-2.6c-0.897-1.165-1.732-2.663-3.124-2.858c-1.089-0.152-2.149,0.628-2.707,1.647
			c-0.558,1.019-0.709,2.234-0.784,3.415c-0.275,4.299,0.317,8.732,2.181,12.544c4.04,8.268,11.852,9.283,19.703,9.098
			c3.103-0.074,6.207-0.147,9.31-0.22c5.673-0.134,11.671-0.37,16.45-3.667c4.216-2.91,6.722-7.856,7.749-13.037
			C641.714,172.657,641.873,169.898,641.708,167.169 M620.951,178.889c-2.988,2.009-6.281,2.118-9.611,1.115
			c-1.416-0.426-0.815-2.802,0.603-2.375c2.759,0.831,5.365,0.809,7.852-0.863C621.046,175.924,622.195,178.053,620.951,178.889"/>
		<path style="fill:#292949;" d="M642.893,122.073c0.548-2.017,0.953-4.073,1.211-6.146c-1.92,0.674-4.011,0.853-6.018,0.515
			c-0.004-1.196-0.009-2.393-0.014-3.59c-0.009-0.996-13.473-1.692-14.568-1.782c-10.242-0.84-19.609-1.64-28.871,3.857
			c-7.912,4.696-12.984,11.708-14.197,20.835c-1.159,8.719,1.694,20.107,6.736,27.345c-0.029-2.322-1.365-7.798-0.817-10.004
			c0.336-2.211,1.099-4.343,2.153-6.311c2.104-3.929,5.365-7.237,9.13-9.597c6.003-3.762,12.983-5.751,19.955-6.722
			c6.387-0.89,14.17-1.711,20.48-0.018c3.033,0.813,3.536,1.574,5.373-1.487c0.323-0.54,2.891-6.843,2.64-6.847
			C645.021,122.106,643.957,122.089,642.893,122.073"/>
		<path style="fill:#353A85;" d="M842.503,276.599L613.749,299.34l-228.755-22.741c-6.436-0.64-11.911,4.682-11.511,11.19
			l9.544,226.327c0.318,5.172,4.29,9.35,9.402,9.876c37.637,3.87,184.519,18.534,200.987,20.407
			c0.833,0.095,1.559,0.586,1.945,1.336c1.105,2.153,5.074,6.563,18.388,6.563c13.313,0,17.282-4.409,18.387-6.563
			c0.386-0.75,1.112-1.241,1.945-1.336c16.468-1.873,163.35-16.536,200.987-20.407c5.113-0.526,9.085-4.704,9.402-9.876
			l9.544-226.327C854.413,281.281,848.939,275.96,842.503,276.599"/>
		<path style="fill:#5D66D3;" d="M842.503,272.854l-228.754,22.741l-228.755-22.741c-6.436-0.64-11.911,4.682-11.511,11.19
			l9.544,226.327c0.318,5.172,4.29,9.35,9.402,9.876c37.637,3.87,184.519,18.534,200.987,20.407
			c0.833,0.095,1.559,0.586,1.945,1.336c1.105,2.153,5.074,6.563,18.388,6.563c13.313,0,17.282-4.409,18.387-6.563
			c0.386-0.75,1.112-1.241,1.945-1.336c16.468-1.873,163.35-16.536,200.987-20.407c5.113-0.526,9.085-4.704,9.402-9.876
			l9.544-226.327C854.413,277.536,848.939,272.215,842.503,272.854"/>
		<path style="fill:#DFD8C7;" d="M614.61,293.946c-105.387-70.478-211.636-38.572-211.636-38.572v244.789
			c146.885-29.801,210.774,31.929,210.774,31.929s63.89-61.73,210.774-31.929V255.374
			C824.522,255.374,719.996,223.468,614.61,293.946"/>
		<path style="fill:#C1BBAC;" d="M402.974,255.375c0,0-4.714,18.625-21.09,29.801l10.544,233.88c0,0,10.545-8.249,10.545-18.892
			V255.375z"/>
		<path style="fill:#C1BBAC;" d="M824.522,255.375c0,0,4.714,18.625,21.09,29.801l-10.544,233.88c0,0-10.545-8.249-10.545-18.892
			V255.375z"/>
		<path style="fill:#CBC4B5;" d="M392.43,519.055c0,0,146.512-33.525,212.014,25.544h9.304v-12.506
			c0,0-66.122-62.794-210.773-31.929L392.43,519.055z"/>
		<path style="fill:#CBC4B5;" d="M835.067,519.055c0,0-146.512-33.525-212.014,25.544h-9.304v-12.506
			c0,0,66.122-62.794,210.773-31.929L835.067,519.055z"/>
		<path style="fill:#F4F4F4;" d="M504.569,240.395c-12.697-1.257-25.296-1.764-37.296-1.883c-5.532-0.055-51.022,1.679-51.022,3.228
			v69.215v177.102c0-1.556,45.595-3.286,51.142-3.227c39.162,0.415,83.167,7.585,117.794,26.703
			c5.785,3.195,29.25,15.762,29.25,24.595V296.387c0-4.887-1.821-9.607-5.169-13.19
			C582.977,255.056,543.319,244.232,504.569,240.395"/>
		<path style="fill:#FFFFFF;" d="M724.307,240.395c12.697-1.257,25.297-1.764,37.296-1.883c5.531-0.055,51.022,1.679,51.022,3.228
			v69.215v177.102c0-1.556-45.595-3.286-51.142-3.227c-39.162,0.415-83.167,7.585-117.794,26.703
			c-5.785,3.195-29.25,15.762-29.25,24.595V296.387c0-4.887,1.821-9.607,5.169-13.19
			C645.899,255.056,685.557,244.232,724.307,240.395"/>
		<g style="opacity:0.05;">
			<g>
				<defs>
					
						<rect id="SVGID_00000060022267738858567810000016535460307021765564_" x="614.438" y="238.51" width="198.187" height="297.618"/>
				</defs>
				<clipPath id="SVGID_00000103970766376551719590000011679499316694562691_">
					<use xlink:href="#SVGID_00000060022267738858567810000016535460307021765564_"  style="overflow:visible;"/>
				</clipPath>
				<path style="clip-path:url(#SVGID_00000103970766376551719590000011679499316694562691_);fill:#272525;" d="M724.307,240.395
					c12.697-1.257,25.297-1.764,37.296-1.883c5.531-0.055,51.022,1.679,51.022,3.228v69.215v177.102
					c0-1.556-45.595-3.286-51.142-3.227c-39.162,0.415-83.167,7.585-117.794,26.703c-5.785,3.195-29.25,15.762-29.25,24.595V296.387
					c0-4.887,1.821-9.607,5.169-13.19C645.899,255.056,685.557,244.232,724.307,240.395"/>
			</g>
		</g>
		<g style="opacity:0.05;">
			<g>
				<defs>
					
						<rect id="SVGID_00000140728366103282196100000016588403089377461638_" x="614.438" y="308.239" width="123.308" height="227.889"/>
				</defs>
				<clipPath id="SVGID_00000029727296370950107570000009757156367319754895_">
					<use xlink:href="#SVGID_00000140728366103282196100000016588403089377461638_"  style="overflow:visible;"/>
				</clipPath>
				<path style="clip-path:url(#SVGID_00000029727296370950107570000009757156367319754895_);fill:#272525;" d="M614.438,308.239
					v227.89c0-8.834,23.465-21.402,29.25-24.596c27.767-15.331,61.562-22.965,94.056-25.608l0.001-0.009
					C637.591,442.417,617.911,335.938,614.438,308.239"/>
			</g>
		</g>
		<path style="fill:#EFBFA5;" d="M1018.954,298.709c-0.335-0.147-0.681-0.296-1.031-0.34c-3.267-0.411-5.217,1.331-8.462,1.829
			c-1.447,0.223-3.948-2.592-5.201,0.195c-0.463,1.029-1.241,3.714-2.206,5.917c-1.407,3.213-5.134,6.436-8.564,8.448
			c-13.48,7.906-28.737,11.926-43.955,15.427c-0.867,0.2-1.776,0.394-2.637,0.172c-1.544-0.399-2.437-1.961-3.187-3.368
			c-3.479-6.522-7.564-12.721-12.188-18.487c-4.125-5.146-8.821-10.057-14.762-12.922c-5.94-2.865-13.358-3.369-18.958,0.114
			c-4.195,2.608-6.987,7.342-7.242,12.275c-0.633,12.232,15.481,20.011,23.906,26.274c7.972,5.926,16.359,11.293,25.08,16.045
			c1.077,0.587,2.196,1.176,3.417,1.293c1.301,0.124,2.585-0.301,3.821-0.723c15.927-5.44,31.283-12.256,46.581-19.418
			c4.203-1.967,6.839-5.896,10.742-7.68c2.491-1.139,5.265-0.241,7.853-0.796c2.561-0.548,5.784-1.921,7.959-3.374
			c4.291-2.866,4.53-8.191,5.196-12.823c0.166-1.153,0.281-1.932-0.087-2.96c-0.598-1.672-2.044-2.609-3.445-3.591
			C1020.756,299.633,1019.876,299.115,1018.954,298.709"/>
		<path style="fill:#DDDAE8;" d="M913.187,329.671c8.052-5.767,16.103-11.535,24.155-17.302
			c-0.516,0.37-23.934-38.137-25.407-40.382c-5.62-8.567-11.508-17.402-20.192-22.837c-18.543-11.607-41.965,5.151-34.84,26.631
			c7.735,23.319,25.025,45.645,45.233,59.512c0.439,0.301,0.906,0.609,1.437,0.653c0.729,0.06,1.392-0.387,1.986-0.812
			C908.102,333.313,910.645,331.492,913.187,329.671"/>
		<polygon style="fill:#EFBFA5;" points="894.703,629.144 894.35,654.005 909.082,654.201 909.473,626.639 		"/>
		<path style="fill:#292949;" d="M907.772,650.307l-12.813,4.235l-3.819,4.111l0.646,9.744l34.634,2.691
			c2.926-4.261,1.023-10.04-3.86-11.717l-1.612-0.554L907.772,650.307z"/>
		<polygon style="fill:#EFBFA5;" points="788.536,605.313 778.779,628.182 792.334,633.952 803.152,608.599 		"/>
		<path style="fill:#292949;" d="M792.081,634.38c-0.486-0.537-1.052-1.047-1.709-1.528c-1.629-1.19-14.762-8.149-15.89-5.012
			c-0.183,0.509-0.125,1.07-0.06,1.607c1.081,9.026,3.199,17.926,6.297,26.472c1.326,3.656,3.337,7.704,7.118,8.615
			c1.656,0.4,3.397,0.105,5.06-0.272c2.452-0.556,4.865-1.287,7.213-2.188c0.858-0.329,1.771-0.734,2.216-1.539
			c0.891-1.61-0.664-3.517-2.287-4.385c-1.623-0.868-3.606-1.491-4.399-3.153c-0.355-0.744-0.406-1.592-0.45-2.416
			C794.859,644.466,795.897,638.594,792.081,634.38"/>
		<path style="fill:#BABCBE;" d="M881.093,513.935c-4.834,22.102-18.651,37.978-33.41,54.231
			c-16.89,18.599-32.778,38.106-47.57,58.412c-6.395-2.666-12.789-5.333-19.183-7.999c5.345-31.058,20.077-59.554,31.494-88.928
			c7.933-20.412,14.36-41.996,14.709-64.056c0.173-10.97-2.485-21.003-3.908-31.672c-1.763-13.217-1.864-26.764-3.457-40.043
			c-0.535-4.453-0.839-9.719,2.585-12.615c1.524-1.289,3.533-1.833,5.493-2.212C900.556,364.972,890.284,471.91,881.093,513.935"/>
		<path style="fill:#BABCBE;" d="M821.86,398.039c-0.039-13.409,1.598-26.334,4.106-36.19c20.683-1.108,44.057,1.181,64.512,5.33
			c19.992,4.057,32.461,8.409,32.606,30.088c0.266,39.892,15.857,73.874,22.59,112.217c3.912,22.282-2.848,42.214-10.338,62.852
			c-8.572,23.615-15.871,47.692-21.855,72.091c-6.928-0.041-13.857-0.082-20.784-0.124c-6.836-30.764-4.017-62.718-4.598-94.228
			c-0.403-21.896-2.645-44.304-10.692-64.847c-8.845-22.582-21.583-13.594-36.202-26.69
			C826.994,445.806,821.928,421.2,821.86,398.039"/>
		<path style="fill:#D67086;" d="M845.347,244.516c-2.284,1.77-4.291,3.905-6.275,6.02c-1.776,1.895-3.554,3.79-5.33,5.685
			c-6.155,6.565-9.195,16.283-11.834,24.671c-13.884,44.135-18.88,104.687-9.864,150.803c34.197,2.954,73.775-5.668,107.896-10.329
			c3.318-0.453,7.076-1.196,8.799-4.068c1.044-1.741,1.074-3.884,1.073-5.913c-0.004-29.276-6.19-60.741-11.993-89.602
			c-2.449-12.179-5.466-24.254-9.335-36.063c-4.095-12.5-8.713-25.998-18.296-35.454c-10.255-10.119-29.891-15.116-42.729-7.217
			C846.725,243.499,846.024,243.991,845.347,244.516"/>
		<path style="fill:#EFBFA5;" d="M849.076,250.668c-0.618-3.982-1.236-7.963-1.854-11.945c-0.831-0.397-1.62-0.836-2.351-1.302
			c-14.261-9.107-38.184-58.001-0.168-68.945c34.519-9.938,32.723,37.548,25.987,57.348c-1.152,3.389-2.693,6.59-4.975,9.366
			c-1.561,1.899-1.911,1.539-1.687,3.739c0.216,2.13,2.338,4.54,2.82,6.786c0.515,2.395,0.321,5.05-1.07,7.067
			c-0.853,1.236-2.096,2.156-3.423,2.859c-2.109,1.117-4.558,1.733-6.903,1.288C852.664,256.399,849.519,253.52,849.076,250.668"/>
		<path style="fill:#292949;" d="M878.796,207.886c-2.882,9.747-5.33,13.5-8.772,17.887c-7.214,9.196-1.217-23.4-4.196-34.702
			c-0.228-0.862-0.449-1.839,0.018-2.598c0.437-0.709,1.324-0.974,2.138-1.15C882.523,184.181,882.48,196.875,878.796,207.886"/>
		<path style="fill:#292949;" d="M840.605,225.497c-2.333,3.281-7.442,2.398-11.039,0.59c-14.775-7.428-23.472-25.307-20.194-41.516
			c2.743-13.563,19.839-23.734,23.296-6.93c1.226,5.958-2.402,14.213-1.572,20.823C832.283,207.91,836.686,216.943,840.605,225.497"
			/>
		<path style="fill:#292949;" d="M878.643,156.02c1.656,0.655,3.34,1.344,5.115,2.039c3.674,1.436,6.336,1.922,10.124-0.231
			c1.083-0.615,8.342-7.478,6.595-8.903c11.578,9.446,2.056,23.235-2.287,32.995c-2.927,6.578-3.529,15.866-10.108,20.166
			c-7.237,4.729-12.201-1.251-18.772-3.93c-5.795-2.365-12.06-3.643-17.957-5.748c-9.785-3.491-24.346-9.623-21.104-22.623
			c3.785-15.184,19.168-18.969,32.989-17.808C869.142,152.472,873.765,154.091,878.643,156.02"/>
		<path style="fill:#353A85;" d="M1033.347,448.062l-35.797-53.877v-183.03c0-3.211,4.167-4.469,5.943-1.795l29.854,44.932V448.062z
			"/>
		<polygon style="fill:#FFFFFF;" points="1031.751,256.079 1001.019,210.467 988.328,213.101 1025.159,259.224 1025.159,449.69 
			1031.751,448.062 		"/>
		<polygon style="fill:#FFFFFF;" points="886.728,242.33 908.654,234.362 1025.159,259.224 1025.159,443.549 886.728,418.618 		"/>
		<path style="fill:#353A85;" d="M1015.387,453.761l-135.852-18.793c-3.031-0.599-5.216-3.259-5.216-6.348V248.036
			c0-4.078,3.727-7.139,7.727-6.348l133.341,18.296V453.761z"/>
		<path style="fill:#5D66D3;" d="M1033.347,254.293c-0.339,1.359-3.742,3.446-8.188,4.931c-4.806,1.607-9.064,1.918-9.716,0.742
			l-0.056,0.018v193.274c-0.037,0.147-0.038,0.287,0,0.415v0.087l0.03-0.01c0.541,1.246,4.856,0.951,9.742-0.682
			c4.928-1.646,8.577-4.033,8.188-5.346V254.293z"/>
		<polygon style="fill:#DFD8C7;" points="988.328,213.101 988.328,251.364 1025.159,259.224 		"/>
		<polygon style="fill:#CBC4B5;" points="1025.159,259.224 919.123,231.643 919.123,236.596 		"/>
		<polygon style="fill:#8CABEF;" points="890.395,398.221 1002.334,413.707 1002.334,438.775 890.395,423.29 		"/>
		<g style="opacity:0.08;">
			<g>
				<defs>
					
						<rect id="SVGID_00000122692011301598910840000014725261969276093347_" x="879.535" y="259.985" width="135.854" height="193.776"/>
				</defs>
				<clipPath id="SVGID_00000097468675021305432830000014967954082986353838_">
					<use xlink:href="#SVGID_00000122692011301598910840000014725261969276093347_"  style="overflow:visible;"/>
				</clipPath>
				<path style="clip-path:url(#SVGID_00000097468675021305432830000014967954082986353838_);fill:#272525;" d="M879.535,434.967
					l135.852,18.793V259.984C1015.387,259.986,997.55,407.065,879.535,434.967"/>
			</g>
		</g>
		<path style="fill:#EFBFA5;" d="M959.292,379.055c-0.248-0.268-0.507-0.543-0.811-0.724c-2.832-1.68-5.315-0.86-8.488-1.698
			c-1.416-0.374-2.585-3.953-4.847-1.896c-0.834,0.759-2.619,2.91-4.383,4.545c-2.572,2.385-7.275,3.853-11.224,4.33
			c-15.515,1.872-31.109-0.53-46.46-3.39c-0.876-0.163-1.786-0.347-2.487-0.895c-1.256-0.982-1.451-2.771-1.578-4.359
			c-0.588-7.369-1.862-14.682-3.8-21.815c-1.73-6.365-4.076-12.742-8.381-17.738c-4.304-4.997-10.904-8.418-17.43-7.459
			c-4.886,0.719-9.336,3.944-11.537,8.366c-5.46,10.964,6.212,24.526,11.439,33.63c4.947,8.614,10.495,16.881,16.597,24.719
			c0.753,0.968,1.544,1.954,2.617,2.548c1.144,0.633,2.491,0.756,3.793,0.862c16.775,1.366,33.575,1.243,50.46,0.779
			c4.64-0.128,8.623-2.678,12.915-2.757c2.739-0.051,4.924,1.879,7.518,2.403c2.567,0.519,6.07,0.545,8.645,0.081
			c5.078-0.916,7.421-5.703,9.88-9.685c0.612-0.991,1.029-1.659,1.102-2.749c0.118-1.772-0.833-3.208-1.727-4.667
			C960.576,380.621,959.975,379.795,959.292,379.055"/>
		<path style="fill:#D67086;" d="M849.954,365.249c9.685-2.076,19.368-4.152,29.053-6.228c-0.621,0.133-6.732-44.519-7.187-47.165
			c-1.735-10.097-3.61-20.547-9.405-28.997c-12.373-18.041-40.536-12.019-42.572,10.521c-2.21,24.468,4.736,51.838,17.735,72.616
			c0.282,0.451,0.588,0.92,1.057,1.172c0.644,0.345,1.43,0.202,2.146,0.048C843.839,366.56,846.896,365.905,849.954,365.249"/>
		<path style="fill:#292949;" d="M503.318,622.605c-1.21-10.458-6.451-18.759-16.134-23.305c-7.854-3.686-16.682-4.553-25.288-5.658
			c-19.166-2.459-37.461-4.918-56.814-4.157c-15.474,0.608-25.012,13.812-32.255,26.833c-4.565,8.207-3.296,12.056,2.45,18.929
			c5.298,6.337,11.728,11.728,18.912,15.811c14.222,8.082,36.071,6.084,51.732,4.337c14.784-1.648,29.255-6.063,42.44-12.949
			C496.847,638.013,504.496,632.787,503.318,622.605"/>
		<path style="fill:#292949;" d="M406.497,651.028c-2.566,6.011-4.81,12.161-6.718,18.413c-1.011,3.308-1.934,6.711-1.806,10.168
			c0.3,8.091,9.303,13.955,15.191,6.472c2.578-3.277,4.645-6.957,6.108-10.862c2.158-5.759-2.4-2.404-6.25-4.173
			c-4.434-2.037-4.327-3.621-2.444-7.776c2.426-5.352,5.295-8.841,4.951-14.999c-0.095-1.7-0.575-3.673-2.143-4.339
			c-1.189-0.505-2.614-0.013-3.558,0.869c-0.945,0.882-1.508,2.087-2.036,3.266C407.351,649.05,406.92,650.038,406.497,651.028"/>
		<path style="fill:#B97262;" d="M436.532,460.608c5.222,0.507,10.445,1.015,15.666,1.522c0.803-4.605,1.276-9.283,1.416-13.976
			c4.549-0.789,9.902-2.281,11.466-7.144c0.492-1.532,0.513-3.198,0.527-4.829c0.06-6.74,0.119-13.479,0.179-20.22
			c0.02-2.331,0.03-4.734-0.748-6.898c-1.366-3.799-4.848-6.068-8.264-7.497c-8.718-3.649-18.886-3.522-26.948,1.633
			c-2.145,1.372-4.17,3.137-5.409,5.536c-1.91,3.699-1.677,8.271-1.389,12.543c0.266,3.944,0.532,7.888,0.798,11.833
			c0.307,4.536,0.965,9.758,4.411,12.16c1.829,1.275,4.196,1.513,5.772,3.161C436.789,451.341,435.508,456.503,436.532,460.608"/>
		<path style="fill:#292949;" d="M457.925,408.711c0.221,0.366,0.407,0.748,0.552,1.145c0.762,2.08,0.315,4.451,1.06,6.537
			c1.181,3.308,5.1,5.237,5.747,8.69c0.529,2.823-1.358,5.55-1.47,8.42c-0.123,3.135,1.936,6.064,1.68,9.161
			c-0.223,2.691-1.859,6.496-3.424,8.677c0.485-0.676,4.985-0.518,6.138-1.251c1.768-1.124,1.959-1.814,2.458-3.686
			c0.495-1.858,0.053-3.673,0.842-5.582c0.969-2.341,3.011-4.084,3.694-6.575c0.931-3.399-0.933-6.934-0.855-10.458
			c0.118-5.333,4.634-10.436,2.872-15.471c-1.033-2.954-3.953-4.802-5.622-7.448c-1.269-2.01-1.766-4.396-2.66-6.598
			c-0.894-2.202-2.403-4.393-4.693-5.025c-1.273-0.351-2.632-0.174-3.934-0.392c-2.251-0.378-4.142-1.892-6.316-2.585
			c-3.11-0.99-8.508,2.233-10.267,4.886c-1.745,2.633-0.802,4.827,1.07,7.095C447.915,402.026,455.33,404.401,457.925,408.711"/>
		<path style="fill:#292949;" d="M413.552,394.138c-1.829,1.393-4.099,2.414-5.762,4.034c-3.244,3.155-3.783,8.119-3.821,12.645
			c-0.034,4.029-1.733,7.64-1.222,11.829c0.344,2.814,1.592,5.643,3.916,7.267c2.894,2.022,7.386,2.281,8.719,5.551
			c1.448,3.55-2.175,8.119,0.128,11.185c1.271,1.691,3.706,1.899,5.501,3.019c2.003,1.249,3.061,3.525,4.306,5.53
			c1.245,2.005,3.097,4.004,5.457,4.011c0.032-3.591,0.088-6.436-1.504-9.691c-0.927-1.896-3.619-5.376-1.636-7.482
			c1.243-1.744,4.239-2.357,4.279-4.498c0.018-1.005-0.698-1.848-1.266-2.678c-2.199-3.21-2.494-7.536-1.107-11.172
			c1.387-3.636,4.327-6.573,7.799-8.332c4.068-2.061,3.389-3.052,4.512-7.002c1.033-3.636,3.07-4.521,6.302-5.897
			c2.902-1.236,3.828-1.99,4.858-4.745c0.754-2.016,1.683-4.43,0.498-6.644c-0.941-1.759-2.601-2.999-4.209-4.181
			c-3.359-2.468-7.131-5.059-11.281-4.685c-2.306,0.208-4.458,1.331-6.767,1.503c-1.54,0.116-3.079-0.199-4.622-0.223
			c-2.632-0.041-5.393,0.808-7.494,2.412c-2.12,1.618-2.03,3.271-3.184,5.534C415.386,392.538,414.533,393.391,413.552,394.138"/>
		<path style="fill:#292949;" d="M422.597,379.217c0.359-2.508,0.042-5.761-2.361-6.563c-1.316-0.439-2.773,0.094-4.138-0.159
			c-2.909-0.538-3.958-4.03-5.523-6.54c-0.234-0.375-0.512-0.756-0.919-0.928c-0.583-0.248-1.242-0.007-1.869,0.081
			c-2.878,0.403-5.12-2.404-7.855-3.387c-3.384-1.217-7.577,0.96-8.528,4.428c-0.391,1.425-0.291,2.947-0.657,4.379
			c-1.479,5.802-9.89,8.409-9.997,14.395c-0.073,4.046,3.953,7.849,2.481,11.617c-0.94,2.41-3.99,4.096-3.592,6.653
			c0.256,1.645,2.032,2.736,3.695,2.683c1.664-0.053,3.176-0.993,4.41-2.11c1.959-1.773,3.419-4.03,5.281-5.903
			c1.862-1.874,4.364-3.411,6.991-3.131c2.544,0.272,4.876,2.208,7.393,1.74c2.012-0.374,3.478-2.202,5.451-2.744
			c1.847-0.508,3.788,0.186,5.701,0.267c1.913,0.081,4.243-0.955,4.259-2.87c0.004-0.464-0.134-0.94,0.004-1.384
			c0.387-1.241,2.495-1.208,2.873-2.451c-1.025-1.521-2.422-0.944-3.173-2.94C421.945,382.806,422.371,380.792,422.597,379.217"/>
		<path style="fill:#FFFFFF;" d="M450.702,455.55c7.288-0.971,14.689-2.293,20.796,0.369c5.172,2.254,5.082,8.784,6.239,13.721
			c3.827,16.332,6.701,32.864,8.952,49.483c1.076,7.946,2.937,16.454,2.891,24.479c-0.037,6.44-1.649,12.7-1.154,19.263
			c0.381,5.042,2.524,10.486,7.141,12.547c2.323,1.038,4.993,1.086,7.321,2.112c2.329,1.026,4.322,3.769,3.151,6.027
			c-0.557,1.074-1.672,1.721-2.728,2.31c-5.759,3.211-11.518,6.423-17.276,9.634c-4.399,2.452-8.822,4.916-13.561,6.619
			c-6.715,2.412-13.896,3.233-21.022,3.595c-18.406,0.935-36.959-1.1-54.724-6.003c-9.565-2.64-18.805-7.322-16.484-18.143
			c2.388-11.138,7.007-22.25,11.987-32.449c6.028-12.346,7.817-27.224,12.087-40.252c4.328-13.203,8.905-26.324,13.517-39.43
			c0.018-0.05,0.035-0.099,0.053-0.149c1.686-4.791,2.377-9.529,6.09-13.418c5.081-5.317,7.529-1.089,13.298-0.007
			C441.462,456.646,446.059,456.169,450.702,455.55"/>
		<path style="fill:#B97262;" d="M468.599,657.66c1.659,0.089,3.317,0.177,4.976,0.266c1.802,0.096,3.813,0.124,5.155-1.083
			c1.638-1.473,1.453-4.255,0.128-6.015c-1.325-1.76-3.463-2.698-5.561-3.37c-5.064-1.624-10.419-2.124-15.734-2.332
			c-0.532-0.021-1.083-0.036-1.577,0.163c-0.861,0.346-1.351,1.255-1.641,2.137C451.33,656.582,462.152,657.315,468.599,657.66"/>
		<path style="fill:#B97262;" d="M404.758,673.246c-0.09,0.739-0.173,1.523,0.145,2.195c0.23,0.489,0.653,0.863,1.109,1.154
			c3.422,2.181,8.022-0.167,10.642-3.266c2.619-3.098,4.393-7.018,7.734-9.32c7.648-5.268,0.647-14.913-7.345-12.701
			C407.712,653.89,405.754,665.098,404.758,673.246"/>
		<path style="fill:#292949;" d="M507.811,623.581c6.604-4.853,13.225-10.352,15.638-18.526s-0.992-19.716-9.512-24.43
			c-10.387-5.746-20.592,1.315-27.999,7.983c-15.173,13.639-31.709,25.698-47.877,38.174c-5.465,4.216-24.42,19.741-24.42,19.741
			c-0.521,2.188,9.667,21.984,12.368,21.26C455.501,659.983,484.188,640.94,507.811,623.581"/>
		<path style="fill:#292949;" d="M359.371,632.984c-6.466-3.147-12.969-6.939-15.527-14.498c-2.557-7.56,0.351-19.999,8.359-26.927
			c9.765-8.445,19.744-4.019,27.034,0.737c14.934,9.726,31.124,17.516,46.972,25.818c5.357,2.806,23.967,13.439,23.967,13.439
			c0.565,2.055-8.583,24.517-11.19,24.492C410.531,655.878,382.503,644.244,359.371,632.984"/>
		<path style="fill:#292949;" d="M457.478,661.656c5.942,2.89,12.04,5.46,18.258,7.698c3.29,1.184,6.679,2.287,10.176,2.329
			c8.185,0.099,14.553-8.701,7.29-15.018c-3.181-2.766-6.794-5.036-10.664-6.706c-5.707-2.465-2.547,2.304-4.524,6.103
			c-2.276,4.375-3.87,4.189-7.972,2.082c-5.284-2.715-8.664-5.786-14.898-5.744c-1.722,0.011-3.738,0.398-4.488,1.947
			c-0.569,1.176-0.144,2.64,0.7,3.637c0.843,0.997,2.033,1.625,3.196,2.217C455.523,660.694,456.499,661.18,457.478,661.656"/>
		<path style="fill:#B97262;" d="M542.819,552.661c-0.095-0.389-0.189-0.792-0.169-1.179c0.185-3.607,2.441-5.376,3.603-8.783
			c0.518-1.52-2.04-4.76,1.215-5.578c3.37-0.844,9.892-0.273,12.173-3.359c1.008-1.365,2.251-3.157,3.898-2.748
			c0.563,0.139,1.026,0.532,1.443,0.936c13.799,13.344,0.385,29.417-14.652,28.914c-1.276-0.043-2.139-0.068-3.178-0.663
			c-1.69-0.968-2.423-2.709-3.214-4.41C543.47,554.783,543.081,553.734,542.819,552.661"/>
		<path style="fill:#FFFFFF;" d="M569.258,555.064c3.416,1.43,7.612-0.016,9.954-2.885c2.342-2.869,2.995-6.857,2.389-10.511
			c-0.605-3.654-2.347-7.025-4.372-10.127c-2.4-3.674-5.42-7.208-9.521-8.771c-2.286-0.87-4.768-1.072-7.214-1.125
			c-1.651-0.036-3.478,0.06-4.667,1.208c-0.851,0.822-1.196,2.026-1.45,3.182c-1.649,7.512-0.353,8.605,4.567,13.598
			C563.308,544.061,566.504,549.534,569.258,555.064"/>
		<path style="fill:#DFD8C7;" d="M342.741,472.818v-11.532c0,0,61.838-5.746,99.027,19.021L342.741,472.818z"/>
		<path style="fill:#FFFFFF;" d="M330.074,471.587l8.281-6.383c0,0,50.571-9.664,103.413,15.103v137.477
			c0,0-35.83-25.761-111.694-15.645V471.587z"/>
		<path style="fill:#DFD8C7;" d="M540.795,472.818v-11.532c0,0-61.838-5.746-99.027,19.021L540.795,472.818z"/>
		<path style="fill:#FFFFFF;" d="M553.462,471.587l-8.281-6.383c0,0-50.571-9.664-103.413,15.103v137.477
			c0,0,35.83-25.761,111.694-15.645V471.587z"/>
		<path style="fill:#353A85;" d="M441.779,480.239c5.762-0.315,10.146-1.685,10.386-3.347c0.004-0.033,0.039-0.068,0.097-0.108
			c-0.029-0.011-0.057-0.024-0.086-0.036c0.098-0.024,0.196-0.049,0.294-0.074c1.639-0.729,9.363-2.276,11.712-2.78
			c0.166-0.036,0.331-0.073,0.497-0.11c0.036-0.008,0.068-0.016,0.094-0.022c6.551-1.65,13.197-2.872,19.89-3.761
			c25.389-3.975,44.022-3.266,54.507-1.733c3.911,0.483,7.734,1.273,11.373,2.521c0.666,0.229,1.297,0.488,1.885,0.797
			c0.005,0.003,0.01,0.004,0.01,0.004l-0.001,0.001c1.25,0.656,2.309,1.54,3.118,2.848c1.088,1.76,1.142,3.481,1.142,5.467v121.42
			c0,3.426-2.834,6.823-6.203,6.203c-20.732-3.82-37.618-3.691-50.607-2.77c-13.691,0.97-27.346,3.05-40.598,6.663
			c-4.315,1.176-9.72,2.095-13.683,4.227c-0.378,0.203-0.79,0.351-1.224,0.436c-0.269,0.053-0.547,0.081-0.832,0.081
			c-0.335,0-0.66-0.039-0.973-0.11c-0.309-0.117-0.631-0.231-0.965-0.345c-1.429-0.713-2.411-2.188-2.411-3.894V483.199
			C439.201,482.168,440.103,481.174,441.779,480.239"/>
		<path style="fill:#353A85;" d="M441.799,480.239c-5.763-0.315-10.147-1.685-10.386-3.347c-0.004-0.033-0.039-0.068-0.097-0.108
			c0.029-0.011,0.057-0.024,0.086-0.036c-0.098-0.024-0.196-0.049-0.295-0.074c-1.638-0.729-9.362-2.276-11.711-2.78
			c-0.166-0.036-0.332-0.073-0.497-0.11c-0.036-0.008-0.068-0.016-0.094-0.022c-6.552-1.65-13.197-2.872-19.89-3.761
			c-25.389-3.975-44.023-3.266-54.507-1.733c-3.912,0.483-7.734,1.273-11.374,2.521c-0.667,0.229-1.297,0.488-1.885,0.797
			c-0.006,0.003-0.01,0.004-0.01,0.004l0.001,0.001c-1.25,0.656-2.309,1.54-3.118,2.848c-1.088,1.76-1.142,3.481-1.142,5.467v121.42
			c0,3.426,2.833,6.823,6.203,6.203c20.732-3.82,37.618-3.691,50.607-2.77c13.691,0.97,27.346,3.05,40.598,6.663
			c4.316,1.176,9.721,2.095,13.683,4.227c0.378,0.203,0.79,0.351,1.224,0.436c0.27,0.053,0.548,0.081,0.833,0.081
			c0.335,0,0.66-0.039,0.973-0.11c0.309-0.117,0.631-0.231,0.965-0.345c1.429-0.713,2.411-2.188,2.411-3.894V483.199
			C444.376,482.168,443.474,481.174,441.799,480.239"/>
		<g style="opacity:0.1;">
			<g>
				<defs>
					
						<rect id="SVGID_00000057143520511907966430000011243734377182718610_" x="342.741" y="501.209" width="101.635" height="114.956"/>
				</defs>
				<clipPath id="SVGID_00000028318147604076487060000006597158836759950745_">
					<use xlink:href="#SVGID_00000057143520511907966430000011243734377182718610_"  style="overflow:visible;"/>
				</clipPath>
				<path style="clip-path:url(#SVGID_00000028318147604076487060000006597158836759950745_);fill:#272525;" d="M431.375,501.21
					c0,0-12.335,80.257-88.634,104.777v0.001c16.379-2.215,30.04-2.001,40.949-1.228c13.691,0.97,27.346,3.049,40.598,6.662
					c4.316,1.177,9.721,2.096,13.682,4.227c0.379,0.203,0.791,0.352,1.224,0.437c0.27,0.052,0.548,0.08,0.833,0.08
					c0.335,0,0.66-0.039,0.973-0.11c0.309-0.117,0.631-0.231,0.965-0.345c1.43-0.713,2.411-2.188,2.411-3.893V501.21H431.375z"/>
			</g>
		</g>
		<path style="fill:#5D66D3;" d="M441.819,479.977c-5.768,0-10.444-1.639-10.417-3.229l-0.027,137.469
			c0,1.97,4.676,3.567,10.444,3.567c5.769,0,10.444-1.597,10.444-3.567l-0.002-137.433
			C451.753,478.597,447.587,479.977,441.819,479.977"/>
		<g style="opacity:0.2;">
			<g>
				<defs>
					
						<rect id="SVGID_00000065049737746768713770000013877817115080282527_" x="326.88" y="467.052" width="229.816" height="15.208"/>
				</defs>
				<clipPath id="SVGID_00000139981770340933531380000011026011709324763050_">
					<use xlink:href="#SVGID_00000065049737746768713770000013877817115080282527_"  style="overflow:visible;"/>
				</clipPath>
				<path style="clip-path:url(#SVGID_00000139981770340933531380000011026011709324763050_);fill:#272525;" d="M555.555,474.44
					c-0.809-1.309-1.869-2.192-3.117-2.848v-0.001c0,0-0.004-0.002-0.01-0.004c-0.588-0.309-1.218-0.567-1.885-0.796
					c-3.64-1.249-7.461-2.039-11.373-2.521c-10.485-1.533-29.118-2.243-54.507,1.733c-6.692,0.889-13.338,2.111-19.89,3.761
					c-0.025,0.006-0.058,0.014-0.094,0.022c-0.165,0.037-0.33,0.073-0.497,0.11c-2.349,0.504-10.073,2.051-11.711,2.779
					c-0.099,0.025-0.196,0.049-0.295,0.074c0.029,0.012,0.057,0.024,0.086,0.036c-0.059,0.039-0.093,0.075-0.097,0.107
					c-0.017,0.119-0.058,0.236-0.116,0.351c-1.027,1.582-4.958,2.734-10.23,2.734c-5.53,0-10.054-1.508-10.394-3.033
					c-0.004-0.017-0.01-0.035-0.012-0.053c0,0,0-0.001,0-0.002c-0.008-0.047-0.011-0.094-0.011-0.141v0.116
					c-0.015-0.025-0.045-0.052-0.087-0.08c0.029-0.012,0.058-0.024,0.087-0.036c-0.099-0.025-0.197-0.049-0.295-0.074
					c-1.639-0.728-9.363-2.275-11.712-2.779c-0.166-0.037-0.331-0.073-0.497-0.11c-0.036-0.008-0.068-0.016-0.094-0.022
					c-6.551-1.65-13.197-2.872-19.89-3.761c-25.389-3.975-44.022-3.266-54.507-1.733c-3.911,0.483-7.734,1.273-11.373,2.521
					c-0.666,0.229-1.297,0.487-1.885,0.796c-0.005,0.003-0.009,0.004-0.009,0.004v0.001c-1.25,0.656-2.309,1.54-3.118,2.848
					c-1.088,1.76-1.141,3.481-1.141,5.467v2.283c0-1.986,0.053-3.707,1.141-5.467c0.809-1.309,1.869-2.192,3.118-2.848v-0.001
					c0,0,0.004-0.002,0.009-0.004c0.588-0.309,1.219-0.568,1.885-0.797c3.64-1.249,7.462-2.039,11.373-2.521
					c10.485-1.533,29.118-2.243,54.507,1.734c6.692,0.888,13.338,2.111,19.89,3.76c0.025,0.006,0.058,0.014,0.094,0.022
					c0.166,0.037,0.331,0.073,0.497,0.11c2.349,0.504,10.073,2.051,11.712,2.78c0.098,0.024,0.196,0.049,0.295,0.074
					c-0.001,0.047,0.003,0.094,0.011,0.141c0,0.001,0,0.002,0,0.002c0.003,0.018,0.009,0.036,0.012,0.053
					c0.339,1.525,4.863,3.033,10.394,3.033c5.272,0,9.203-1.152,10.23-2.734c0.058-0.116,0.098-0.232,0.116-0.351
					c0.004-0.032,0.039-0.068,0.097-0.107c-0.029-0.011-0.057-0.024-0.086-0.036c0.099-0.024,0.196-0.049,0.295-0.074
					c1.638-0.729,9.362-2.276,11.711-2.78c0.167-0.037,0.332-0.073,0.497-0.11c0.036-0.008,0.068-0.016,0.094-0.022
					c6.551-1.649,13.197-2.872,19.89-3.76c25.389-3.976,44.022-3.266,54.507-1.734c3.912,0.483,7.734,1.273,11.373,2.521
					c0.667,0.229,1.297,0.487,1.885,0.797c0.005,0.002,0.01,0.004,0.01,0.004v0.001c1.249,0.656,2.309,1.54,3.117,2.848
					c1.088,1.76,1.142,3.481,1.142,5.467v-2.283C556.697,477.922,556.643,476.2,555.555,474.44"/>
			</g>
		</g>
		<g style="opacity:0.1;">
			<g>
				<defs>
					
						<rect id="SVGID_00000008127290283103743930000015235671225139198138_" x="431.374" y="476.748" width="7.826" height="140.923"/>
				</defs>
				<clipPath id="SVGID_00000038392683031711577230000005234939233811405493_">
					<use xlink:href="#SVGID_00000008127290283103743930000015235671225139198138_"  style="overflow:visible;"/>
				</clipPath>
				<path style="clip-path:url(#SVGID_00000038392683031711577230000005234939233811405493_);fill:#272525;" d="M431.402,476.748
					l-0.027,137.468c0,1.662,3.325,3.057,7.826,3.454V479.862C434.7,479.464,431.379,478.088,431.402,476.748"/>
			</g>
		</g>
		<path style="fill:#5D66D3;" d="M537.898,483.433c-10.099-1.477-28.048-2.16-52.504,1.67c-4.649,0.617-12.749,2.271-16.956,3.157
			c-1.579,0.332-2.709,1.725-2.709,3.338v27.765c0,2.182,2.018,3.795,4.149,3.33c9.934-2.165,20.613-5.189,32.918-5.938
			c10.528-0.641,20.959-0.952,36.758,1.189c2.048,0.277,3.872-1.313,3.872-3.38v-27.382c0-1.667-1.204-3.094-2.849-3.365
			C539.69,483.671,538.796,483.544,537.898,483.433"/>
		<path style="fill:#B97262;" d="M346.292,539.404c0.095-0.389,0.188-0.792,0.169-1.179c-0.185-3.606-2.441-5.376-3.603-8.783
			c-0.518-1.52,2.04-4.76-1.215-5.578c-3.37-0.844-9.892-0.273-12.173-3.359c-1.008-1.365-2.251-3.157-3.897-2.749
			c-0.564,0.139-1.026,0.532-1.444,0.936c-13.798,13.345-0.385,29.417,14.652,28.914c1.277-0.043,2.139-0.068,3.178-0.663
			c1.691-0.967,2.424-2.709,3.214-4.41C345.642,541.527,346.031,540.477,346.292,539.404"/>
		<path style="fill:#FFFFFF;" d="M319.853,541.807c-3.416,1.43-7.612-0.016-9.954-2.885c-2.342-2.87-2.995-6.857-2.389-10.511
			c0.605-3.654,2.347-7.026,4.372-10.127c2.4-3.674,5.42-7.208,9.521-8.77c2.286-0.87,4.768-1.072,7.214-1.125
			c1.651-0.036,3.478,0.06,4.667,1.208c0.851,0.822,1.196,2.026,1.45,3.182c1.649,7.512,0.353,8.604-4.567,13.598
			C325.803,530.804,322.607,536.277,319.853,541.807"/>
		<path style="fill:#EFBFA5;" d="M684.188,265.724c-0.285-0.184-0.577-0.377-0.785-0.613c-1.94-2.195-1.469-4.271-2.652-6.8
			c-0.529-1.129-4.06-1.846-2.392-3.823c0.616-0.729,2.431-2.322,3.763-3.866c2.423-2.81,0.161-6.891,2.687-10.046
			c2.172-2.712,9.997-5.215,12.74-1.23c1.028,1.495-0.4,3.906-0.181,5.53c0.337,2.493,2.347,4.156,3.256,6.472
			c0.807,2.056,1.263,4.907,1.14,7.034c-0.243,4.195-4.486,6.417-7.954,8.681c-0.863,0.564-1.444,0.947-2.467,1.077
			c-1.663,0.213-3.139-0.468-4.631-1.1C685.829,266.667,684.973,266.233,684.188,265.724"/>
		<path style="fill:#8CABEF;" d="M706.586,253.758c3.265-1.579,4.924-5.597,4.336-9.175c-0.588-3.579-3.091-6.644-6.165-8.569
			c-3.075-1.925-6.678-2.833-10.267-3.357c-4.252-0.622-8.804-0.697-12.608,1.3c-2.122,1.113-3.879,2.805-5.504,4.564
			c-1.096,1.188-2.211,2.592-2.14,4.209c0.052,1.157,0.712,2.191,1.396,3.127c4.443,6.081,6.086,5.838,12.941,5.464
			C694.653,250.991,700.742,252.194,706.586,253.758"/>
		<path style="fill:#EFBFA5;" d="M533.988,259.64c0.311-0.135,0.631-0.277,0.875-0.475c2.273-1.848,2.15-3.973,3.733-6.273
			c0.706-1.026,4.309-1.154,2.987-3.378c-0.488-0.82-2.018-2.691-3.077-4.431c-1.93-3.169,0.972-6.824-1.002-10.351
			c-1.698-3.032-9.005-6.785-12.366-3.304c-1.259,1.305-0.247,3.918-0.73,5.484c-0.741,2.405-2.997,3.715-4.273,5.85
			c-1.133,1.896-2.051,4.633-2.279,6.751c-0.45,4.178,3.372,7.067,6.421,9.869c0.759,0.698,1.269,1.171,2.257,1.468
			c1.606,0.483,3.174,0.053,4.749-0.325C532.215,260.301,533.13,260.012,533.988,259.64"/>
		<path style="fill:#8CABEF;" d="M513.857,244.161c-2.962-2.094-3.939-6.329-2.771-9.763c1.167-3.434,4.139-6.047,7.487-7.441
			c3.348-1.394,7.052-1.699,10.678-1.627c4.296,0.084,8.799,0.758,12.224,3.351c1.91,1.446,3.366,3.403,4.679,5.406
			c0.887,1.353,1.756,2.92,1.421,4.502c-0.24,1.134-1.061,2.046-1.89,2.856c-5.381,5.269-6.962,4.76-13.662,3.267
			C526.083,243.389,519.878,243.576,513.857,244.161"/>
	</g>
</g>
</svg>
